<svg xmlns="http://www.w3.org/2000/svg" xmlns:xlink="http://www.w3.org/1999/xlink" width="500" zoomAndPan="magnify" viewBox="0 0 375 374.999991" height="500" preserveAspectRatio="xMidYMid meet" version="1.2"><defs><clipPath id="5d72f13e2b"><path d="M 113.304688 109.625 L 261.804688 109.625 L 261.804688 265.625 L 113.304688 265.625 Z M 113.304688 109.625 "/></clipPath><clipPath id="8e220cd9a2"><path d="M 120.320312 179.652344 L 114.824219 179.652344 C 114.179688 179.652344 113.644531 180.140625 113.589844 180.78125 C 113.402344 183 113.304688 185.253906 113.304688 187.484375 C 113.304688 189.714844 113.402344 191.96875 113.589844 194.1875 C 113.644531 194.828125 114.179688 195.316406 114.820312 195.316406 L 120.3125 195.316406 C 123.285156 195.316406 125.867188 197.433594 126.449219 200.351562 C 127.03125 203.269531 125.457031 206.214844 122.707031 207.355469 L 117.621094 209.460938 C 117.027344 209.707031 116.722656 210.363281 116.914062 210.976562 C 118.257812 215.230469 119.988281 219.398438 122.050781 223.359375 C 122.347656 223.929688 123.027344 224.175781 123.621094 223.933594 L 128.714844 221.820312 C 131.457031 220.6875 134.648438 221.648438 136.300781 224.117188 C 137.957031 226.589844 137.632812 229.914062 135.527344 232.019531 L 131.640625 235.90625 C 131.1875 236.359375 131.152344 237.085938 131.566406 237.574219 C 134.441406 240.988281 137.628906 244.179688 141.046875 247.054688 C 141.535156 247.464844 142.261719 247.4375 142.714844 246.984375 L 146.605469 243.09375 C 148.710938 240.988281 152.035156 240.664062 154.507812 242.320312 C 156.972656 243.972656 157.9375 247.164062 156.800781 249.910156 L 154.691406 255 C 154.449219 255.589844 154.695312 256.273438 155.265625 256.570312 C 159.230469 258.632812 163.398438 260.359375 167.648438 261.703125 C 168.261719 261.894531 168.917969 261.589844 169.164062 260.996094 L 171.351562 255.722656 C 172.445312 253.078125 175.273438 251.566406 178.078125 252.125 L 178.476562 252.203125 C 181.273438 252.761719 183.304688 255.238281 183.304688 258.09375 L 183.304688 263.792969 C 183.304688 264.433594 183.796875 264.96875 184.433594 265.023438 C 186.648438 265.210938 188.898438 265.308594 191.132812 265.308594 C 191.816406 265.308594 192.367188 264.753906 192.367188 264.074219 L 192.367188 218.132812 C 192.367188 217.449219 191.816406 216.898438 191.132812 216.898438 C 174.914062 216.898438 161.71875 203.703125 161.71875 187.484375 C 161.71875 171.265625 174.914062 158.070312 191.132812 158.070312 C 191.816406 158.070312 192.367188 157.515625 192.367188 156.835938 L 192.367188 110.894531 C 192.367188 110.210938 191.816406 109.660156 191.132812 109.660156 C 188.898438 109.660156 186.648438 109.753906 184.433594 109.941406 C 183.796875 109.996094 183.304688 110.53125 183.304688 111.175781 L 183.304688 116.679688 C 183.304688 119.644531 181.191406 122.222656 178.28125 122.800781 C 175.355469 123.382812 172.410156 121.808594 171.269531 119.054688 L 169.164062 113.96875 C 168.917969 113.378906 168.261719 113.070312 167.648438 113.265625 C 163.398438 114.609375 159.230469 116.335938 155.265625 118.398438 C 154.695312 118.695312 154.449219 119.378906 154.691406 119.96875 L 156.832031 125.128906 C 157.949219 127.835938 156.996094 130.984375 154.558594 132.613281 C 152.054688 134.289062 148.691406 133.960938 146.558594 131.832031 L 142.714844 127.988281 C 142.261719 127.535156 141.535156 127.503906 141.046875 127.917969 C 137.628906 130.792969 134.441406 133.980469 131.566406 137.394531 C 131.152344 137.886719 131.183594 138.609375 131.636719 139.066406 L 135.527344 142.957031 C 137.632812 145.058594 137.957031 148.378906 136.300781 150.851562 C 134.644531 153.320312 131.453125 154.285156 128.707031 153.148438 L 123.617188 151.039062 C 123.027344 150.796875 122.347656 151.042969 122.050781 151.609375 C 119.988281 155.574219 118.257812 159.742188 116.914062 163.996094 C 116.722656 164.609375 117.027344 165.265625 117.617188 165.511719 L 122.703125 167.617188 C 125.457031 168.757812 127.03125 171.707031 126.449219 174.625 C 125.867188 177.535156 123.289062 179.652344 120.320312 179.652344 Z M 123.652344 165.332031 L 119.621094 163.660156 C 120.746094 160.273438 122.125 156.949219 123.726562 153.757812 L 127.761719 155.425781 C 131.59375 157.015625 136.046875 155.664062 138.355469 152.222656 C 140.664062 148.773438 140.214844 144.140625 137.277344 141.207031 L 134.195312 138.121094 C 136.535156 135.425781 139.078125 132.882812 141.777344 130.539062 L 144.8125 133.578125 C 147.773438 136.539062 152.453125 137 155.933594 134.664062 C 159.347656 132.382812 160.683594 127.972656 159.113281 124.183594 L 157.414062 120.078125 C 160.609375 118.476562 163.933594 117.097656 167.316406 115.96875 L 168.988281 120 C 170.578125 123.839844 174.691406 126.035156 178.765625 125.226562 C 182.828125 124.414062 185.777344 120.820312 185.777344 116.679688 L 185.777344 112.316406 C 187.144531 112.222656 188.523438 112.164062 189.898438 112.140625 L 189.898438 155.625 C 172.886719 156.277344 159.25 170.316406 159.25 187.484375 C 159.25 204.652344 172.886719 218.695312 189.898438 219.347656 L 189.898438 262.832031 C 188.523438 262.808594 187.144531 262.75 185.777344 262.652344 L 185.777344 258.09375 C 185.777344 254.066406 182.910156 250.570312 178.960938 249.785156 L 178.5625 249.703125 C 174.597656 248.914062 170.609375 251.050781 169.066406 254.777344 L 167.316406 259 C 163.933594 257.871094 160.609375 256.496094 157.414062 254.890625 L 159.085938 250.855469 C 160.671875 247.027344 159.324219 242.574219 155.882812 240.269531 C 152.433594 237.957031 147.796875 238.410156 144.859375 241.347656 L 141.777344 244.425781 C 139.078125 242.085938 136.535156 239.542969 134.195312 236.84375 L 137.269531 233.769531 C 140.210938 230.828125 140.664062 226.191406 138.351562 222.738281 C 136.046875 219.300781 131.589844 217.953125 127.769531 219.539062 L 123.726562 221.210938 C 122.125 218.015625 120.746094 214.691406 119.621094 211.304688 L 123.65625 209.632812 C 127.488281 208.042969 129.6875 203.9375 128.875 199.863281 C 128.0625 195.792969 124.460938 192.84375 120.316406 192.84375 L 115.964844 192.84375 C 115.839844 191.066406 115.777344 189.265625 115.777344 187.484375 C 115.777344 185.703125 115.839844 183.90625 115.964844 182.125 L 120.316406 182.125 C 124.460938 182.125 128.0625 179.171875 128.871094 175.105469 C 129.6875 171.03125 127.488281 166.921875 123.652344 165.332031 Z M 209.648438 265.308594 C 215.210938 265.308594 219.738281 260.785156 219.738281 255.226562 L 219.738281 238.867188 C 219.738281 236.847656 220.960938 235.003906 222.855469 234.167969 C 246.460938 223.792969 261.710938 200.425781 261.710938 174.648438 C 261.714844 138.8125 232.558594 109.660156 196.726562 109.660156 C 196.042969 109.660156 195.488281 110.210938 195.488281 110.894531 L 195.488281 264.074219 C 195.488281 264.757812 196.042969 265.308594 196.726562 265.308594 Z M 207.046875 178.609375 C 209.117188 178.609375 210.867188 181.167969 210.867188 184.199219 C 210.867188 187.226562 209.117188 189.785156 207.046875 189.785156 C 204.980469 189.785156 203.230469 187.226562 203.230469 184.199219 C 203.230469 181.167969 204.980469 178.609375 207.046875 178.609375 Z M 200.757812 184.199219 C 200.757812 188.640625 203.582031 192.257812 207.046875 192.257812 C 210.515625 192.257812 213.335938 188.640625 213.335938 184.199219 C 213.335938 180.625 211.511719 177.589844 208.992188 176.539062 C 210.085938 175.140625 212.472656 173.109375 217.125 173.109375 C 220.664062 173.109375 223.5625 174.546875 225.507812 177.261719 C 228.242188 181.082031 228.730469 186.996094 226.78125 192.695312 C 224.9375 198.105469 219.738281 202.109375 215.699219 204.515625 C 211.089844 207.265625 208.226562 212.238281 208.226562 217.492188 L 208.226562 228.269531 L 197.957031 228.269531 L 197.957031 173.203125 C 200.625 173.550781 202.769531 174.992188 204.65625 176.746094 C 202.375 177.957031 200.757812 180.839844 200.757812 184.199219 Z M 197.960938 253.992188 L 197.960938 248.28125 L 217.269531 248.28125 L 217.269531 253.992188 Z M 217.269531 245.8125 L 197.960938 245.8125 L 197.960938 240.105469 L 217.269531 240.105469 Z M 213.246094 237.632812 L 197.960938 237.632812 L 197.960938 230.738281 L 210.769531 230.738281 C 212.132812 230.738281 213.246094 231.742188 213.246094 232.972656 Z M 209.648438 262.839844 L 197.960938 262.839844 L 197.960938 256.460938 L 217.160156 256.460938 C 216.566406 260.074219 213.429688 262.839844 209.648438 262.839844 Z M 259.242188 174.648438 C 259.242188 199.449219 244.570312 221.925781 221.859375 231.910156 C 219.460938 232.964844 217.796875 235.136719 217.378906 237.636719 L 215.714844 237.636719 L 215.714844 232.976562 C 215.714844 230.382812 213.496094 228.269531 210.765625 228.269531 L 210.695312 228.269531 L 210.695312 217.492188 C 210.695312 213.101562 213.097656 208.941406 216.964844 206.636719 C 221.359375 204.019531 227.03125 199.613281 229.121094 193.492188 C 231.320312 187.050781 230.703125 180.28125 227.515625 175.824219 C 225.125 172.480469 221.433594 170.636719 217.125 170.636719 C 211.144531 170.636719 208.125 173.488281 206.792969 175.355469 C 204.476562 173.113281 201.648438 171.097656 197.960938 170.714844 L 197.960938 112.140625 C 231.867188 112.800781 259.242188 140.589844 259.242188 174.648438 Z M 259.242188 174.648438 "/></clipPath><linearGradient x1="60.060001" gradientTransform="matrix(1.235494,0,0,1.235494,113.305101,109.658657)" y1="-0.00000628826" x2="60.060001" gradientUnits="userSpaceOnUse" y2="125.982997" id="4f7cceca6c"><stop style="stop-color:#efcb58;stop-opacity:1;" offset="0"/><stop style="stop-color:#efcb59;stop-opacity:1;" offset="0.00390625"/><stop style="stop-color:#efcb59;stop-opacity:1;" offset="0.0078125"/><stop style="stop-color:#efcc5a;stop-opacity:1;" offset="0.0117188"/><stop style="stop-color:#efcc5b;stop-opacity:1;" offset="0.015625"/><stop style="stop-color:#efcc5b;stop-opacity:1;" offset="0.0195312"/><stop style="stop-color:#efcc5c;stop-opacity:1;" offset="0.0234375"/><stop style="stop-color:#efcc5d;stop-opacity:1;" offset="0.0273438"/><stop style="stop-color:#efcd5d;stop-opacity:1;" offset="0.03125"/><stop style="stop-color:#efcd5e;stop-opacity:1;" offset="0.0351562"/><stop style="stop-color:#f0cd5e;stop-opacity:1;" offset="0.0390625"/><stop style="stop-color:#f0cd5f;stop-opacity:1;" offset="0.0429688"/><stop style="stop-color:#f0cd60;stop-opacity:1;" offset="0.046875"/><stop style="stop-color:#f0ce60;stop-opacity:1;" offset="0.0507812"/><stop style="stop-color:#f0ce61;stop-opacity:1;" offset="0.0546875"/><stop style="stop-color:#f0ce62;stop-opacity:1;" offset="0.0585938"/><stop style="stop-color:#f0ce62;stop-opacity:1;" offset="0.0625"/><stop style="stop-color:#f0ce63;stop-opacity:1;" offset="0.0664062"/><stop style="stop-color:#f0cf64;stop-opacity:1;" offset="0.0703125"/><stop style="stop-color:#f0cf64;stop-opacity:1;" offset="0.0742188"/><stop style="stop-color:#f0cf65;stop-opacity:1;" offset="0.078125"/><stop style="stop-color:#f0cf66;stop-opacity:1;" offset="0.0820312"/><stop style="stop-color:#f0cf66;stop-opacity:1;" offset="0.0859375"/><stop style="stop-color:#f0d067;stop-opacity:1;" offset="0.0898437"/><stop style="stop-color:#f0d068;stop-opacity:1;" offset="0.09375"/><stop style="stop-color:#f1d068;stop-opacity:1;" offset="0.0976562"/><stop style="stop-color:#f1d069;stop-opacity:1;" offset="0.101562"/><stop style="stop-color:#f1d06a;stop-opacity:1;" offset="0.105469"/><stop style="stop-color:#f1d16a;stop-opacity:1;" offset="0.109375"/><stop style="stop-color:#f1d16b;stop-opacity:1;" offset="0.113281"/><stop style="stop-color:#f1d16c;stop-opacity:1;" offset="0.117187"/><stop style="stop-color:#f1d16c;stop-opacity:1;" offset="0.121094"/><stop style="stop-color:#f1d16d;stop-opacity:1;" offset="0.125"/><stop style="stop-color:#f1d26e;stop-opacity:1;" offset="0.128906"/><stop style="stop-color:#f1d26e;stop-opacity:1;" offset="0.132812"/><stop style="stop-color:#f1d26f;stop-opacity:1;" offset="0.136719"/><stop style="stop-color:#f1d26f;stop-opacity:1;" offset="0.140625"/><stop style="stop-color:#f1d270;stop-opacity:1;" offset="0.144531"/><stop style="stop-color:#f1d371;stop-opacity:1;" offset="0.148438"/><stop style="stop-color:#f1d371;stop-opacity:1;" offset="0.152344"/><stop style="stop-color:#f1d372;stop-opacity:1;" offset="0.15625"/><stop style="stop-color:#f2d373;stop-opacity:1;" offset="0.160156"/><stop style="stop-color:#f2d473;stop-opacity:1;" offset="0.164062"/><stop style="stop-color:#f2d474;stop-opacity:1;" offset="0.167969"/><stop style="stop-color:#f2d475;stop-opacity:1;" offset="0.171875"/><stop style="stop-color:#f2d475;stop-opacity:1;" offset="0.175781"/><stop style="stop-color:#f2d476;stop-opacity:1;" offset="0.179687"/><stop style="stop-color:#f2d577;stop-opacity:1;" offset="0.183594"/><stop style="stop-color:#f2d577;stop-opacity:1;" offset="0.1875"/><stop style="stop-color:#f2d578;stop-opacity:1;" offset="0.191406"/><stop style="stop-color:#f2d579;stop-opacity:1;" offset="0.195312"/><stop style="stop-color:#f2d579;stop-opacity:1;" offset="0.199219"/><stop style="stop-color:#f2d67a;stop-opacity:1;" offset="0.203125"/><stop style="stop-color:#f2d67b;stop-opacity:1;" offset="0.207031"/><stop style="stop-color:#f2d67b;stop-opacity:1;" offset="0.210938"/><stop style="stop-color:#f2d67c;stop-opacity:1;" offset="0.214844"/><stop style="stop-color:#f2d67d;stop-opacity:1;" offset="0.21875"/><stop style="stop-color:#f3d77d;stop-opacity:1;" offset="0.222656"/><stop style="stop-color:#f3d77e;stop-opacity:1;" offset="0.226562"/><stop style="stop-color:#f3d77e;stop-opacity:1;" offset="0.230469"/><stop style="stop-color:#f3d77f;stop-opacity:1;" offset="0.234375"/><stop style="stop-color:#f3d780;stop-opacity:1;" offset="0.238281"/><stop style="stop-color:#f3d880;stop-opacity:1;" offset="0.242188"/><stop style="stop-color:#f3d881;stop-opacity:1;" offset="0.246094"/><stop style="stop-color:#f3d882;stop-opacity:1;" offset="0.25"/><stop style="stop-color:#f3d882;stop-opacity:1;" offset="0.253906"/><stop style="stop-color:#f3d883;stop-opacity:1;" offset="0.257812"/><stop style="stop-color:#f3d984;stop-opacity:1;" offset="0.261719"/><stop style="stop-color:#f3d984;stop-opacity:1;" offset="0.265625"/><stop style="stop-color:#f3d985;stop-opacity:1;" offset="0.269531"/><stop style="stop-color:#f3d986;stop-opacity:1;" offset="0.273437"/><stop style="stop-color:#f3d986;stop-opacity:1;" offset="0.277344"/><stop style="stop-color:#f3da87;stop-opacity:1;" offset="0.28125"/><stop style="stop-color:#f4da88;stop-opacity:1;" offset="0.285156"/><stop style="stop-color:#f4da88;stop-opacity:1;" offset="0.289062"/><stop style="stop-color:#f4da89;stop-opacity:1;" offset="0.292969"/><stop style="stop-color:#f4da8a;stop-opacity:1;" offset="0.296875"/><stop style="stop-color:#f4db8a;stop-opacity:1;" offset="0.300781"/><stop style="stop-color:#f4db8b;stop-opacity:1;" offset="0.304688"/><stop style="stop-color:#f4db8c;stop-opacity:1;" offset="0.308594"/><stop style="stop-color:#f4db8c;stop-opacity:1;" offset="0.3125"/><stop style="stop-color:#f4db8d;stop-opacity:1;" offset="0.316406"/><stop style="stop-color:#f4dc8d;stop-opacity:1;" offset="0.320312"/><stop style="stop-color:#f4dc8e;stop-opacity:1;" offset="0.324219"/><stop style="stop-color:#f4dc8f;stop-opacity:1;" offset="0.328125"/><stop style="stop-color:#f4dc8f;stop-opacity:1;" offset="0.332031"/><stop style="stop-color:#f4dc90;stop-opacity:1;" offset="0.335938"/><stop style="stop-color:#f4dd91;stop-opacity:1;" offset="0.339844"/><stop style="stop-color:#f4dd91;stop-opacity:1;" offset="0.34375"/><stop style="stop-color:#f5dd92;stop-opacity:1;" offset="0.347656"/><stop style="stop-color:#f5dd93;stop-opacity:1;" offset="0.351562"/><stop style="stop-color:#f5dd93;stop-opacity:1;" offset="0.355469"/><stop style="stop-color:#f5de94;stop-opacity:1;" offset="0.359375"/><stop style="stop-color:#f5de95;stop-opacity:1;" offset="0.363281"/><stop style="stop-color:#f5de95;stop-opacity:1;" offset="0.367188"/><stop style="stop-color:#f5de96;stop-opacity:1;" offset="0.371094"/><stop style="stop-color:#f5de97;stop-opacity:1;" offset="0.375"/><stop style="stop-color:#f5df97;stop-opacity:1;" offset="0.378906"/><stop style="stop-color:#f5df98;stop-opacity:1;" offset="0.382812"/><stop style="stop-color:#f5df99;stop-opacity:1;" offset="0.386719"/><stop style="stop-color:#f5df99;stop-opacity:1;" offset="0.390625"/><stop style="stop-color:#f5e09a;stop-opacity:1;" offset="0.394531"/><stop style="stop-color:#f5e09b;stop-opacity:1;" offset="0.398437"/><stop style="stop-color:#f5e09b;stop-opacity:1;" offset="0.402344"/><stop style="stop-color:#f5e09c;stop-opacity:1;" offset="0.40625"/><stop style="stop-color:#f6e09c;stop-opacity:1;" offset="0.410156"/><stop style="stop-color:#f6e19d;stop-opacity:1;" offset="0.414062"/><stop style="stop-color:#f6e19e;stop-opacity:1;" offset="0.417969"/><stop style="stop-color:#f6e19e;stop-opacity:1;" offset="0.421875"/><stop style="stop-color:#f6e19f;stop-opacity:1;" offset="0.425781"/><stop style="stop-color:#f6e1a0;stop-opacity:1;" offset="0.429687"/><stop style="stop-color:#f6e2a0;stop-opacity:1;" offset="0.433594"/><stop style="stop-color:#f6e2a1;stop-opacity:1;" offset="0.4375"/><stop style="stop-color:#f6e2a2;stop-opacity:1;" offset="0.441406"/><stop style="stop-color:#f6e2a2;stop-opacity:1;" offset="0.445312"/><stop style="stop-color:#f6e2a3;stop-opacity:1;" offset="0.449219"/><stop style="stop-color:#f6e3a4;stop-opacity:1;" offset="0.453125"/><stop style="stop-color:#f6e3a4;stop-opacity:1;" offset="0.457031"/><stop style="stop-color:#f6e3a5;stop-opacity:1;" offset="0.460938"/><stop style="stop-color:#f6e3a6;stop-opacity:1;" offset="0.464844"/><stop style="stop-color:#f6e3a6;stop-opacity:1;" offset="0.46875"/><stop style="stop-color:#f7e4a7;stop-opacity:1;" offset="0.472656"/><stop style="stop-color:#f7e4a8;stop-opacity:1;" offset="0.476562"/><stop style="stop-color:#f7e4a8;stop-opacity:1;" offset="0.480469"/><stop style="stop-color:#f7e4a9;stop-opacity:1;" offset="0.484375"/><stop style="stop-color:#f7e4aa;stop-opacity:1;" offset="0.488281"/><stop style="stop-color:#f7e5aa;stop-opacity:1;" offset="0.492188"/><stop style="stop-color:#f7e5ab;stop-opacity:1;" offset="0.496094"/><stop style="stop-color:#f7e5ab;stop-opacity:1;" offset="0.5"/><stop style="stop-color:#f7e5ac;stop-opacity:1;" offset="0.503906"/><stop style="stop-color:#f7e5ad;stop-opacity:1;" offset="0.507812"/><stop style="stop-color:#f7e6ad;stop-opacity:1;" offset="0.511719"/><stop style="stop-color:#f7e6ae;stop-opacity:1;" offset="0.515625"/><stop style="stop-color:#f7e6af;stop-opacity:1;" offset="0.519531"/><stop style="stop-color:#f7e6af;stop-opacity:1;" offset="0.523437"/><stop style="stop-color:#f7e6b0;stop-opacity:1;" offset="0.527344"/><stop style="stop-color:#f7e7b1;stop-opacity:1;" offset="0.53125"/><stop style="stop-color:#f8e7b1;stop-opacity:1;" offset="0.535156"/><stop style="stop-color:#f8e7b2;stop-opacity:1;" offset="0.539062"/><stop style="stop-color:#f8e7b3;stop-opacity:1;" offset="0.542969"/><stop style="stop-color:#f8e7b3;stop-opacity:1;" offset="0.546875"/><stop style="stop-color:#f8e8b4;stop-opacity:1;" offset="0.550781"/><stop style="stop-color:#f8e8b5;stop-opacity:1;" offset="0.554687"/><stop style="stop-color:#f8e8b5;stop-opacity:1;" offset="0.558594"/><stop style="stop-color:#f8e8b6;stop-opacity:1;" offset="0.5625"/><stop style="stop-color:#f8e8b7;stop-opacity:1;" offset="0.566406"/><stop style="stop-color:#f8e9b7;stop-opacity:1;" offset="0.570312"/><stop style="stop-color:#f8e9b8;stop-opacity:1;" offset="0.574219"/><stop style="stop-color:#f8e9b9;stop-opacity:1;" offset="0.578125"/><stop style="stop-color:#f8e9b9;stop-opacity:1;" offset="0.582031"/><stop style="stop-color:#f8e9ba;stop-opacity:1;" offset="0.585938"/><stop style="stop-color:#f8eaba;stop-opacity:1;" offset="0.589844"/><stop style="stop-color:#f8eabb;stop-opacity:1;" offset="0.59375"/><stop style="stop-color:#f9eabc;stop-opacity:1;" offset="0.597656"/><stop style="stop-color:#f9eabc;stop-opacity:1;" offset="0.601562"/><stop style="stop-color:#f9eabd;stop-opacity:1;" offset="0.605469"/><stop style="stop-color:#f9ebbe;stop-opacity:1;" offset="0.609375"/><stop style="stop-color:#f9ebbe;stop-opacity:1;" offset="0.613281"/><stop style="stop-color:#f9ebbf;stop-opacity:1;" offset="0.617188"/><stop style="stop-color:#f9ebc0;stop-opacity:1;" offset="0.621094"/><stop style="stop-color:#f9ebc0;stop-opacity:1;" offset="0.625"/><stop style="stop-color:#f9ecc1;stop-opacity:1;" offset="0.628906"/><stop style="stop-color:#f9ecc2;stop-opacity:1;" offset="0.632812"/><stop style="stop-color:#f9ecc2;stop-opacity:1;" offset="0.636719"/><stop style="stop-color:#f9ecc3;stop-opacity:1;" offset="0.640625"/><stop style="stop-color:#f9edc4;stop-opacity:1;" offset="0.644531"/><stop style="stop-color:#f9edc4;stop-opacity:1;" offset="0.648437"/><stop style="stop-color:#f9edc5;stop-opacity:1;" offset="0.652344"/><stop style="stop-color:#f9edc6;stop-opacity:1;" offset="0.65625"/><stop style="stop-color:#faedc6;stop-opacity:1;" offset="0.660156"/><stop style="stop-color:#faeec7;stop-opacity:1;" offset="0.664062"/><stop style="stop-color:#faeec8;stop-opacity:1;" offset="0.667969"/><stop style="stop-color:#faeec8;stop-opacity:1;" offset="0.671875"/><stop style="stop-color:#faeec9;stop-opacity:1;" offset="0.675781"/><stop style="stop-color:#faeec9;stop-opacity:1;" offset="0.679687"/><stop style="stop-color:#faefca;stop-opacity:1;" offset="0.683594"/><stop style="stop-color:#faefcb;stop-opacity:1;" offset="0.6875"/><stop style="stop-color:#faefcb;stop-opacity:1;" offset="0.691406"/><stop style="stop-color:#faefcc;stop-opacity:1;" offset="0.695312"/><stop style="stop-color:#faefcd;stop-opacity:1;" offset="0.699219"/><stop style="stop-color:#faf0cd;stop-opacity:1;" offset="0.703125"/><stop style="stop-color:#faf0ce;stop-opacity:1;" offset="0.707031"/><stop style="stop-color:#faf0cf;stop-opacity:1;" offset="0.710937"/><stop style="stop-color:#faf0cf;stop-opacity:1;" offset="0.714844"/><stop style="stop-color:#faf0d0;stop-opacity:1;" offset="0.71875"/><stop style="stop-color:#fbf1d1;stop-opacity:1;" offset="0.722656"/><stop style="stop-color:#fbf1d1;stop-opacity:1;" offset="0.726562"/><stop style="stop-color:#fbf1d2;stop-opacity:1;" offset="0.730469"/><stop style="stop-color:#fbf1d3;stop-opacity:1;" offset="0.734375"/><stop style="stop-color:#fbf1d3;stop-opacity:1;" offset="0.738281"/><stop style="stop-color:#fbf2d4;stop-opacity:1;" offset="0.742187"/><stop style="stop-color:#fbf2d5;stop-opacity:1;" offset="0.746094"/><stop style="stop-color:#fbf2d5;stop-opacity:1;" offset="0.75"/><stop style="stop-color:#fbf2d6;stop-opacity:1;" offset="0.753906"/><stop style="stop-color:#fbf2d7;stop-opacity:1;" offset="0.757812"/><stop style="stop-color:#fbf3d7;stop-opacity:1;" offset="0.761719"/><stop style="stop-color:#fbf3d8;stop-opacity:1;" offset="0.765625"/><stop style="stop-color:#fbf3d9;stop-opacity:1;" offset="0.769531"/><stop style="stop-color:#fbf3d9;stop-opacity:1;" offset="0.773438"/><stop style="stop-color:#fbf3da;stop-opacity:1;" offset="0.777344"/><stop style="stop-color:#fbf4da;stop-opacity:1;" offset="0.78125"/><stop style="stop-color:#fcf4db;stop-opacity:1;" offset="0.785156"/><stop style="stop-color:#fcf4dc;stop-opacity:1;" offset="0.789062"/><stop style="stop-color:#fcf4dc;stop-opacity:1;" offset="0.792969"/><stop style="stop-color:#fcf4dd;stop-opacity:1;" offset="0.796875"/><stop style="stop-color:#fcf5de;stop-opacity:1;" offset="0.800781"/><stop style="stop-color:#fcf5de;stop-opacity:1;" offset="0.804688"/><stop style="stop-color:#fcf5df;stop-opacity:1;" offset="0.808594"/><stop style="stop-color:#fcf5e0;stop-opacity:1;" offset="0.8125"/><stop style="stop-color:#fcf5e0;stop-opacity:1;" offset="0.816406"/><stop style="stop-color:#fcf6e1;stop-opacity:1;" offset="0.820312"/><stop style="stop-color:#fcf6e2;stop-opacity:1;" offset="0.824219"/><stop style="stop-color:#fcf6e2;stop-opacity:1;" offset="0.828125"/><stop style="stop-color:#fcf6e3;stop-opacity:1;" offset="0.832031"/><stop style="stop-color:#fcf6e4;stop-opacity:1;" offset="0.835938"/><stop style="stop-color:#fcf7e4;stop-opacity:1;" offset="0.839844"/><stop style="stop-color:#fcf7e5;stop-opacity:1;" offset="0.84375"/><stop style="stop-color:#fdf7e6;stop-opacity:1;" offset="0.847656"/><stop style="stop-color:#fdf7e6;stop-opacity:1;" offset="0.851562"/><stop style="stop-color:#fdf7e7;stop-opacity:1;" offset="0.855469"/><stop style="stop-color:#fdf8e8;stop-opacity:1;" offset="0.859375"/><stop style="stop-color:#fdf8e8;stop-opacity:1;" offset="0.863281"/><stop style="stop-color:#fdf8e9;stop-opacity:1;" offset="0.867187"/><stop style="stop-color:#fdf8e9;stop-opacity:1;" offset="0.871094"/><stop style="stop-color:#fdf8ea;stop-opacity:1;" offset="0.875"/><stop style="stop-color:#fdf9eb;stop-opacity:1;" offset="0.878906"/><stop style="stop-color:#fdf9eb;stop-opacity:1;" offset="0.882812"/><stop style="stop-color:#fdf9ec;stop-opacity:1;" offset="0.886719"/><stop style="stop-color:#fdf9ed;stop-opacity:1;" offset="0.890625"/><stop style="stop-color:#fdfaed;stop-opacity:1;" offset="0.894531"/><stop style="stop-color:#fdfaee;stop-opacity:1;" offset="0.898437"/><stop style="stop-color:#fdfaef;stop-opacity:1;" offset="0.902344"/><stop style="stop-color:#fdfaef;stop-opacity:1;" offset="0.90625"/><stop style="stop-color:#fefaf0;stop-opacity:1;" offset="0.910156"/><stop style="stop-color:#fefbf1;stop-opacity:1;" offset="0.914062"/><stop style="stop-color:#fefbf1;stop-opacity:1;" offset="0.917969"/><stop style="stop-color:#fefbf2;stop-opacity:1;" offset="0.921875"/><stop style="stop-color:#fefbf3;stop-opacity:1;" offset="0.925781"/><stop style="stop-color:#fefbf3;stop-opacity:1;" offset="0.929687"/><stop style="stop-color:#fefcf4;stop-opacity:1;" offset="0.933594"/><stop style="stop-color:#fefcf5;stop-opacity:1;" offset="0.9375"/><stop style="stop-color:#fefcf5;stop-opacity:1;" offset="0.941406"/><stop style="stop-color:#fefcf6;stop-opacity:1;" offset="0.945312"/><stop style="stop-color:#fefcf7;stop-opacity:1;" offset="0.949219"/><stop style="stop-color:#fefdf7;stop-opacity:1;" offset="0.953125"/><stop style="stop-color:#fefdf8;stop-opacity:1;" offset="0.957031"/><stop style="stop-color:#fefdf8;stop-opacity:1;" offset="0.960937"/><stop style="stop-color:#fefdf9;stop-opacity:1;" offset="0.964844"/><stop style="stop-color:#fefdfa;stop-opacity:1;" offset="0.96875"/><stop style="stop-color:#fffefa;stop-opacity:1;" offset="0.972656"/><stop style="stop-color:#fffefb;stop-opacity:1;" offset="0.976562"/><stop style="stop-color:#fffefc;stop-opacity:1;" offset="0.980469"/><stop style="stop-color:#fffefc;stop-opacity:1;" offset="0.984375"/><stop style="stop-color:#fffefd;stop-opacity:1;" offset="0.988281"/><stop style="stop-color:#fffffe;stop-opacity:1;" offset="0.992187"/><stop style="stop-color:#fffffe;stop-opacity:1;" offset="0.996094"/><stop style="stop-color:#ffffff;stop-opacity:1;" offset="1"/></linearGradient></defs><g id="15b4815c96"><g clip-rule="nonzero" clip-path="url(#5d72f13e2b)"><g clip-rule="nonzero" clip-path="url(#8e220cd9a2)"><path style=" stroke:none;fill-rule:nonzero;fill:url(#4f7cceca6c);" d="M 113.304688 109.660156 L 113.304688 265.308594 L 261.714844 265.308594 L 261.714844 109.660156 Z M 113.304688 109.660156 "/></g></g></g></svg>