<svg xmlns="http://www.w3.org/2000/svg" xmlns:xlink="http://www.w3.org/1999/xlink" width="500" zoomAndPan="magnify" viewBox="0 0 375 374.999991" height="500" preserveAspectRatio="xMidYMid meet" version="1.2"><defs><clipPath id="a1a3d926e4"><path d="M 82.785156 195 L 138 195 L 138 269 L 82.785156 269 Z M 82.785156 195 "/></clipPath><clipPath id="cbbcd539c8"><path d="M 82.785156 176 L 189 176 L 189 218 L 82.785156 218 Z M 82.785156 176 "/></clipPath><clipPath id="6619c03541"><path d="M 134 105.820312 L 241 105.820312 L 241 147 L 134 147 Z M 134 105.820312 "/></clipPath></defs><g id="fd67f3f341"><rect x="0" width="375" y="0" height="374.999991" style="fill:#ffffff;fill-opacity:1;stroke:none;"/><rect x="0" width="375" y="0" height="374.999991" style="fill:#f9b233;fill-opacity:1;stroke:none;"/><g clip-rule="nonzero" clip-path="url(#a1a3d926e4)"><path style="fill:none;stroke-width:4;stroke-linecap:round;stroke-linejoin:round;stroke:#601c00;stroke-opacity:1;stroke-miterlimit:10;" d="M 143.629425 319.672299 L 74.923953 294.462877 L 74.923953 225.548414 L 143.629425 250.763061 Z M 143.629425 319.672299 " transform="matrix(0.747643,0,0,0.747643,28.46017,28.440547)"/></g><path style=" stroke:none;fill-rule:nonzero;fill:#fff5e2;fill-opacity:1;" d="M 135.84375 215.921875 L 84.476562 197.070312 L 135.84375 178.21875 L 187.210938 197.070312 Z M 135.84375 215.921875 "/><g clip-rule="nonzero" clip-path="url(#cbbcd539c8)"><path style="fill:none;stroke-width:4;stroke-linecap:round;stroke-linejoin:round;stroke:#601c00;stroke-opacity:1;stroke-miterlimit:10;" d="M 143.629425 250.763061 L 74.923953 225.548414 L 143.629425 200.333767 L 212.334898 225.548414 Z M 143.629425 250.763061 " transform="matrix(0.747643,0,0,0.747643,28.46017,28.440547)"/></g><path style="fill:none;stroke-width:4;stroke-linecap:round;stroke-linejoin:round;stroke:#601c00;stroke-opacity:1;stroke-miterlimit:10;" d="M 112.249572 211.854343 L 178.734526 237.878826 " transform="matrix(0.747643,0,0,0.747643,28.46017,28.440547)"/><path style="fill:none;stroke-width:4;stroke-linecap:round;stroke-linejoin:round;stroke:#601c00;stroke-opacity:1;stroke-miterlimit:10;" d="M 143.629425 319.672299 L 212.334898 294.462877 L 212.334898 225.548414 L 143.629425 250.763061 Z M 143.629425 319.672299 " transform="matrix(0.747643,0,0,0.747643,28.46017,28.440547)"/><path style="fill-rule:nonzero;fill:#fff5e2;fill-opacity:1;stroke-width:4;stroke-linecap:round;stroke-linejoin:round;stroke:#601c00;stroke-opacity:1;stroke-miterlimit:10;" d="M 193.959449 296.558002 L 208.061052 291.380274 L 208.061052 277.236874 L 193.959449 282.409377 Z M 193.959449 296.558002 " transform="matrix(0.747643,0,0,0.747643,28.46017,28.440547)"/><path style="fill-rule:nonzero;fill:#fff5e2;fill-opacity:1;stroke-width:4;stroke-linecap:round;stroke-linejoin:round;stroke:#601c00;stroke-opacity:1;stroke-miterlimit:10;" d="M 137.77248 310.659604 L 123.670877 305.487101 L 123.670877 291.338476 L 137.77248 296.516204 Z M 137.77248 310.659604 " transform="matrix(0.747643,0,0,0.747643,28.46017,28.440547)"/><path style="fill:none;stroke-width:4;stroke-linecap:round;stroke-linejoin:round;stroke:#601c00;stroke-opacity:1;stroke-miterlimit:10;" d="M 281.56807 319.672299 L 212.862598 294.462877 L 212.862598 225.548414 L 281.56807 250.763061 Z M 281.56807 319.672299 " transform="matrix(0.747643,0,0,0.747643,28.46017,28.440547)"/><path style="fill-rule:nonzero;fill:#fff5e2;fill-opacity:1;stroke-width:4;stroke-linecap:round;stroke-linejoin:round;stroke:#601c00;stroke-opacity:1;stroke-miterlimit:10;" d="M 281.56807 250.763061 L 212.862598 225.548414 L 281.56807 200.333767 L 350.273543 225.548414 Z M 281.56807 250.763061 " transform="matrix(0.747643,0,0,0.747643,28.46017,28.440547)"/><path style="fill:none;stroke-width:4;stroke-linecap:round;stroke-linejoin:round;stroke:#601c00;stroke-opacity:1;stroke-miterlimit:10;" d="M 250.188217 211.854343 L 316.678395 237.878826 " transform="matrix(0.747643,0,0,0.747643,28.46017,28.440547)"/><path style="fill:none;stroke-width:4;stroke-linecap:round;stroke-linejoin:round;stroke:#601c00;stroke-opacity:1;stroke-miterlimit:10;" d="M 281.56807 319.672299 L 350.273543 294.462877 L 350.273543 225.548414 L 281.56807 250.763061 Z M 281.56807 319.672299 " transform="matrix(0.747643,0,0,0.747643,28.46017,28.440547)"/><path style="fill-rule:nonzero;fill:#fff5e2;fill-opacity:1;stroke-width:4;stroke-linecap:round;stroke-linejoin:round;stroke:#601c00;stroke-opacity:1;stroke-miterlimit:10;" d="M 331.898094 296.558002 L 346.004921 291.380274 L 346.004921 277.236874 L 331.898094 282.409377 Z M 331.898094 296.558002 " transform="matrix(0.747643,0,0,0.747643,28.46017,28.440547)"/><path style="fill-rule:nonzero;fill:#fff5e2;fill-opacity:1;stroke-width:4;stroke-linecap:round;stroke-linejoin:round;stroke:#601c00;stroke-opacity:1;stroke-miterlimit:10;" d="M 276.029834 310.659604 L 261.928232 305.487101 L 261.928232 291.338476 L 276.029834 296.516204 Z M 276.029834 310.659604 " transform="matrix(0.747643,0,0,0.747643,28.46017,28.440547)"/><path style="fill:none;stroke-width:4;stroke-linecap:round;stroke-linejoin:round;stroke:#601c00;stroke-opacity:1;stroke-miterlimit:10;" d="M 212.60136 224.863972 L 143.895888 199.649325 L 143.895888 130.740087 L 212.60136 155.949509 Z M 212.60136 224.863972 " transform="matrix(0.747643,0,0,0.747643,28.46017,28.440547)"/><path style=" stroke:none;fill-rule:nonzero;fill:#fff5e2;fill-opacity:1;" d="M 187.410156 145.035156 L 136.042969 126.1875 L 187.410156 107.335938 L 238.777344 126.1875 Z M 187.410156 145.035156 "/><g clip-rule="nonzero" clip-path="url(#6619c03541)"><path style="fill:none;stroke-width:4;stroke-linecap:round;stroke-linejoin:round;stroke:#601c00;stroke-opacity:1;stroke-miterlimit:10;" d="M 212.60136 155.949509 L 143.895888 130.740087 L 212.60136 105.52544 L 281.306833 130.740087 Z M 212.60136 155.949509 " transform="matrix(0.747643,0,0,0.747643,28.46017,28.440547)"/></g><path style="fill:none;stroke-width:4;stroke-linecap:round;stroke-linejoin:round;stroke:#601c00;stroke-opacity:1;stroke-miterlimit:10;" d="M 181.221507 117.04079 L 247.70646 143.065274 " transform="matrix(0.747643,0,0,0.747643,28.46017,28.440547)"/><path style="fill:none;stroke-width:4;stroke-linecap:round;stroke-linejoin:round;stroke:#601c00;stroke-opacity:1;stroke-miterlimit:10;" d="M 212.60136 224.863972 L 281.306833 199.649325 L 281.306833 130.740087 L 212.60136 155.949509 Z M 212.60136 224.863972 " transform="matrix(0.747643,0,0,0.747643,28.46017,28.440547)"/><path style="fill-rule:nonzero;fill:#fff5e2;fill-opacity:1;stroke-width:4;stroke-linecap:round;stroke-linejoin:round;stroke:#601c00;stroke-opacity:1;stroke-miterlimit:10;" d="M 262.931384 201.749675 L 277.032986 196.571947 L 277.032986 182.423321 L 262.931384 187.601049 Z M 262.931384 201.749675 " transform="matrix(0.747643,0,0,0.747643,28.46017,28.440547)"/><path style="fill-rule:nonzero;fill:#fff5e2;fill-opacity:1;stroke-width:4;stroke-linecap:round;stroke-linejoin:round;stroke:#601c00;stroke-opacity:1;stroke-miterlimit:10;" d="M 205.57407 215.663186 L 191.467243 210.485458 L 191.467243 196.336833 L 205.57407 201.514561 Z M 205.57407 215.663186 " transform="matrix(0.747643,0,0,0.747643,28.46017,28.440547)"/><path style="fill:none;stroke-width:4;stroke-linecap:round;stroke-linejoin:round;stroke:#601c00;stroke-opacity:1;stroke-miterlimit:10;" d="M 178.248624 237.68551 L 178.248624 252.941782 " transform="matrix(0.747643,0,0,0.747643,28.46017,28.440547)"/><path style="fill:none;stroke-width:4;stroke-linecap:round;stroke-linejoin:round;stroke:#601c00;stroke-opacity:1;stroke-miterlimit:10;" d="M 247.70646 143.065274 L 247.70646 157.61098 " transform="matrix(0.747643,0,0,0.747643,28.46017,28.440547)"/><path style="fill:none;stroke-width:4;stroke-linecap:round;stroke-linejoin:round;stroke:#601c00;stroke-opacity:1;stroke-miterlimit:10;" d="M 316.678395 237.878826 L 316.678395 250.763061 " transform="matrix(0.747643,0,0,0.747643,28.46017,28.440547)"/></g></svg>